<?xml version="1.0" encoding="utf-8"?>
<!-- Generator: Adobe Illustrator 25.2.0, SVG Export Plug-In . SVG Version: 6.00 Build 0)  -->
<svg version="1.1" id="menu-icon" xmlns="http://www.w3.org/2000/svg" xmlns:xlink="http://www.w3.org/1999/xlink" x="0px" y="0px"
	 viewBox="0 0 30 30" style="enable-background:new 0 0 30 30;" xml:space="preserve">
<style type="text/css">
	.st0{fill:#FFFFFF;}
</style>
<g id="top">
	<path class="st0" d="M6.4,5.8C6,5.4,5.4,5.4,5,5.8s-0.4,1,0,1.4l0,0l17,17c0.4,0.4,1,0.4,1.4,0s0.4-1,0-1.4l0,0L6.4,5.8z"/>
</g>
<g id="bottom">
	<path class="st0" d="M5,22.8c-0.4,0.4-0.4,1,0,1.4s1,0.4,1.4,0l0,0l17-17c0.4-0.4,0.4-1,0-1.4s-1-0.4-1.4,0l0,0L5,22.8z"/>
</g>
</svg>
