<?xml version="1.0" encoding="utf-8"?>
<!-- Generator: Adobe Illustrator 25.2.0, SVG Export Plug-In . SVG Version: 6.00 Build 0)  -->
<svg version="1.1" id="Calque_1" xmlns="http://www.w3.org/2000/svg" xmlns:xlink="http://www.w3.org/1999/xlink" x="0px" y="0px"
	 viewBox="0 0 59.76 51.02" style="enable-background:new 0 0 59.76 51.02;" xml:space="preserve">
<style type="text/css">
	.st0{fill:#FFFFFF;}
</style>
<g>
	<path class="st0" d="M20.52,9.24c0.68,0.24,1.42,0.37,2.04,0.72c1.85,1.06,2.68,2.73,2.68,4.84c0,8.19,0,16.38,0,24.57
		c0,0.98,0.01,1.96-0.03,2.93c-0.11,2.38-1.98,4.48-4.31,4.86c-2.54,0.42-5-0.92-5.85-3.26c-0.23-0.64-0.37-1.35-0.37-2.02
		c-0.02-9.09-0.02-18.19-0.01-27.28c0-2.75,1.81-4.83,4.55-5.3c0.05-0.01,0.09-0.04,0.13-0.06C19.73,9.24,20.13,9.24,20.52,9.24z"/>
	<path class="st0" d="M40.42,9.24c0.57,0.18,1.18,0.29,1.71,0.55c1.86,0.95,2.91,2.49,2.95,4.58c0.06,2.71,0.02,5.42,0.02,8.13
		c0,6.43,0.01,12.87,0,19.3c0,2.3-1.05,3.99-3.12,4.97c-3.31,1.56-7.24-0.83-7.43-4.47c-0.02-0.31-0.02-0.62-0.02-0.93
		c0-8.8,0-17.59-0.01-26.39c0-1.32,0.25-2.55,1.07-3.62c0.87-1.14,2.02-1.83,3.44-2.06c0.07-0.01,0.14-0.04,0.21-0.07
		C39.63,9.24,40.02,9.24,40.42,9.24z"/>
</g>
</svg>
