<?xml version="1.0" encoding="utf-8"?>
<!-- Generator: Adobe Illustrator 25.2.0, SVG Export Plug-In . SVG Version: 6.00 Build 0)  -->
<svg version="1.1" id="Calque_1" xmlns="http://www.w3.org/2000/svg" xmlns:xlink="http://www.w3.org/1999/xlink" x="0px" y="0px"
	 viewBox="0 0 410.82 419.29" style="enable-background:new 0 0 410.82 419.29;" xml:space="preserve">
<style type="text/css">
	.st0{fill:#FFFFFF;}
</style>
<g>
	<path class="st0" d="M67.43,16.47c2.25,0,4.5,0,6.75,0c2.89,1.42,5.87,2.67,8.65,4.27c69.09,39.84,138.17,79.71,207.24,119.58
		c29.51,17.03,59.01,34.1,88.55,51.08c4.95,2.85,8.92,6.4,10.52,12.07c2.5,8.87-1.19,16.63-10.54,22.02
		c-89.61,51.74-179.2,103.5-268.84,155.19c-11.75,6.78-23.71,13.2-35.58,19.78c-2.25,0-4.5,0-6.75,0
		c-11.73-4.58-14.97-9.35-14.97-22.01c0-113.21,0-226.41,0-339.62C52.46,25.76,55.49,21.23,67.43,16.47z"/>
</g>
</svg>
